<svg version="1.1" id="Layer_1" xmlns="http://www.w3.org/2000/svg" xmlns:xlink="http://www.w3.org/1999/xlink" x="0px" y="0px"
	 width="100%" viewBox="0 0 1024 1024" enable-background="new 0 0 1024 1024" xml:space="preserve">
<rect x="0" y="0" width="1024" height="1024" fill="#ffffff"/>
<g transform="translate(512 512) scale(0.9) translate(-512 -512)">
<path fill="#8c8fff" opacity="1.000000" stroke="none"
	d="
M592.189941,744.875732
	C588.223389,741.424866 585.244751,737.343201 581.023010,734.846375
	C578.738464,736.749146 579.366577,738.889587 579.353760,740.791382
	C579.288696,750.456787 579.204163,760.125183 579.384583,769.787659
	C579.454651,773.540527 578.119629,776.028809 574.984558,778.049561
	C556.080627,790.234680 537.232727,802.506897 518.405579,814.810486
	C514.951782,817.067444 511.621124,817.285156 508.149628,815.044861
	C488.971741,802.669067 469.808167,790.270874 450.601715,777.939453
	C447.593414,776.007996 446.577026,773.432800 446.628082,769.942749
	C446.769470,760.279053 446.700195,750.611694 446.644104,740.946167
	C446.632812,739.005066 447.098450,736.912720 445.191010,734.767700
	C441.280609,736.559692 438.757874,740.117310 435.794098,743.051636
	C428.116730,750.652710 428.155609,750.713074 420.235413,743.136597
	C415.178253,738.298889 410.205353,733.372009 405.098480,728.587830
	C402.613129,726.259521 401.611267,723.606628 401.630066,720.172791
	C401.740509,700.008484 401.610596,679.842712 401.751160,659.678772
	C401.776093,656.101990 400.774323,653.800110 397.532532,652.043396
	C388.891571,647.360840 380.376984,642.441833 371.869659,637.517517
	C368.810791,635.746826 366.018433,635.395264 362.477478,636.623596
	C347.066986,641.969177 331.505585,646.877930 316.053131,652.105408
	C311.623352,653.603943 307.942963,653.355591 303.875793,650.589111
	C276.873047,632.221802 249.711700,614.087585 222.605530,595.872192
	C216.428055,591.720947 216.353745,589.078857 222.353165,584.664062
	C240.871399,571.036987 259.408569,557.435669 277.932922,543.816956
	C278.583191,543.338867 279.175476,542.781860 280.099365,542.005859
	C277.948669,540.503052 275.986816,541.286194 274.191559,541.632996
	C250.010010,546.305176 225.841385,551.044189 201.667938,555.758362
	C193.698807,557.312439 193.145279,557.162415 188.620346,550.149231
	C167.122604,516.830078 145.671982,483.480499 124.231270,450.124603
	C122.913033,448.073730 121.077492,446.063446 122.530632,443.277679
	C124.094124,440.280365 126.925194,440.742737 129.555267,440.713745
	C167.039795,440.300323 204.524460,439.897522 242.008972,439.481934
	C242.479095,439.476746 242.947769,439.338867 244.186829,439.138397
	C238.180969,436.174225 232.275421,435.251648 226.608887,433.686859
	C193.234146,424.470642 159.829819,415.361359 126.417976,406.280365
	C123.096199,405.377533 121.819290,403.251556 121.801018,400.086395
	C121.767365,394.253845 121.783592,388.420959 121.784538,382.588226
	C121.796288,310.428009 121.808868,238.267807 121.822624,166.107590
	C121.822876,164.774414 121.849167,163.441238 121.847153,162.108078
	C121.843430,159.653427 122.305809,157.358170 124.769638,156.215408
	C127.336388,155.024887 129.211899,156.596420 131.032730,158.128937
	C153.596466,177.119568 176.174240,196.093567 198.723129,215.101837
	C227.893036,239.691498 257.069580,264.273438 286.188171,288.923798
	C311.109985,310.021332 335.975494,331.185516 360.819031,352.375214
	C367.930115,358.440491 367.861389,358.564575 363.274628,366.801086
	C339.332367,409.794708 365.575806,465.202423 413.968109,473.711853
	C436.700378,477.709198 457.263458,472.868744 475.430573,458.343872
	C477.506104,456.684418 479.347168,453.038788 482.375244,454.483398
	C486.439911,456.422546 490.613129,458.618500 492.216339,463.715057
	C498.160675,482.611786 504.316254,501.442383 510.476257,520.270386
	C511.005615,521.888489 510.942230,523.970764 513.208374,525.048035
	C515.780457,520.711243 516.898071,515.854065 518.438049,511.211548
	C523.573669,495.729248 528.611816,480.212341 533.453613,464.636017
	C535.148010,459.185028 539.624207,457.003876 543.957275,454.679626
	C546.276123,453.435760 547.968567,455.750824 549.550537,457.093475
	C559.940369,465.911682 571.719604,471.937592 585.190430,474.094940
	C633.166504,481.778351 668.575439,447.862244 671.945129,408.590332
	C673.314697,392.629028 670.508789,377.746796 661.969971,364.158386
	C659.115784,359.616272 660.315369,356.580353 664.032959,353.422302
	C687.143005,333.790375 710.114197,313.994873 733.250183,294.393799
	C770.751587,262.622253 808.342651,230.956635 845.899597,199.250732
	C861.811096,185.818161 877.723328,172.386429 893.659363,158.983032
	C895.792786,157.188629 897.916626,154.728333 901.108521,156.107788
	C904.533691,157.588043 904.148621,160.911133 904.148926,163.912857
	C904.155884,237.906311 904.160156,311.899750 904.165649,385.893219
	C904.165955,390.392700 904.169800,394.892181 904.178833,399.391663
	C904.186584,403.252502 902.399109,405.454468 898.556580,406.486511
	C861.898743,416.332611 825.269653,426.285522 788.624634,436.179260
	C786.881409,436.649963 785.052979,436.822937 783.487854,438.418335
	C785.421387,439.938873 787.588684,439.663483 789.645996,439.679199
	C806.143677,439.805328 822.641907,439.858887 839.139282,440.013855
	C858.461304,440.195343 877.782593,440.453247 897.104065,440.688110
	C899.236755,440.714050 901.655884,440.252991 902.909729,442.598785
	C904.272339,445.148132 903.059998,447.334198 901.633423,449.538727
	C884.708740,475.692444 867.833557,501.878143 850.941956,528.053223
	C845.883301,535.892212 840.616699,543.606140 835.829529,551.607239
	C833.284851,555.860168 830.167175,557.155090 825.448608,556.209473
	C804.399170,551.991089 783.339600,547.816956 762.240356,543.857605
	C756.812744,542.839050 751.443298,540.924255 744.612122,541.371094
	C751.814697,547.932678 759.197571,552.420105 766.080383,557.548584
	C778.503540,566.805359 790.981567,575.988892 803.355042,585.311462
	C808.540710,589.218567 808.461670,591.570801 803.179138,595.164429
	C776.183044,613.529419 749.116760,631.791687 722.177979,650.240173
	C717.755615,653.268677 713.702271,653.681641 708.633972,651.877380
	C693.264343,646.406006 677.711243,641.452087 662.283569,636.139954
	C659.319397,635.119324 656.848694,635.397034 654.224060,636.930481
	C645.306458,642.140686 636.387817,647.354126 627.352783,652.355530
	C624.469849,653.951294 624.175964,656.246765 624.181763,659.038635
	C624.223206,679.036804 624.134094,699.035706 624.276062,719.033020
	C624.304138,722.988525 623.240417,726.004761 620.306519,728.746826
	C614.465393,734.205933 608.917786,739.978210 603.218872,745.590576
	C598.273315,750.460999 597.326111,750.402283 592.189941,744.875732
z"/>
<path fill="#8c8fff" opacity="1.000000" stroke="none"
	d="
M705.227905,292.261078
	C655.255493,331.965149 605.565796,371.455505 555.873657,410.942688
	C554.700012,411.875336 553.438721,412.705536 552.320190,413.698273
	C548.774841,416.844727 545.773376,416.493927 542.417908,413.055542
	C534.388672,404.828186 526.094788,396.858582 517.883972,388.809265
	C513.159241,384.177460 512.693787,384.171295 507.829254,388.935120
	C500.090485,396.513641 492.429535,404.171753 484.677429,411.736511
	C479.110596,417.168854 478.302979,417.074768 472.232941,412.259399
	C437.640961,384.817322 403.016785,357.415802 368.399078,330.006165
	C346.060181,312.318604 323.708679,294.646912 301.374542,276.953308
	C296.811279,273.338257 296.727020,271.362122 300.828186,267.306580
	C313.743561,254.534897 326.643219,241.747269 339.580627,228.997940
	C344.587891,224.063416 346.533997,224.369995 350.373840,230.259644
	C362.112152,248.264236 373.917511,266.225128 385.631836,284.245270
	C386.915741,286.220245 388.490112,287.284698 390.789551,287.717194
	C418.917114,293.007751 447.027832,298.387787 475.156555,303.671997
	C486.437042,305.791077 497.787018,307.552673 509.037506,309.814423
	C517.057739,311.426788 524.571167,308.784760 532.143677,307.431396
	C565.228027,301.518463 598.341125,295.742371 631.269531,288.969482
	C636.425476,287.908997 639.882690,285.552490 642.656860,281.178650
	C653.275269,264.437256 664.115723,247.836761 674.878296,231.186905
	C679.440002,224.129822 680.855652,224.028534 686.880188,229.949768
	C699.357605,242.213211 711.900696,254.409760 724.384949,266.666321
	C729.275879,271.468048 729.132141,273.091034 723.821838,277.326324
	C717.699158,282.209564 711.612549,287.138092 705.227905,292.261078
z"/>
<path fill="#8c8fff" opacity="1.000000" stroke="none"
	d="
M416.749023,456.549316
	C392.520050,450.241486 377.496307,435.212646 372.339447,411.161072
	C369.843597,399.520538 371.614532,387.947113 377.200134,377.222168
	C379.792542,372.244507 382.198853,371.734924 386.577972,375.349335
	C412.117584,396.429199 437.597412,417.581482 463.118011,438.684387
	C466.380524,441.382141 466.344482,443.617432 462.840790,446.185211
	C449.091339,456.261749 433.953857,460.028717 416.749023,456.549316
z"/>
<path fill="#8c8fff" opacity="1.000000" stroke="none"
	d="
M623.892212,388.870911
	C629.546692,384.187225 634.871643,379.658600 640.310425,375.271027
	C644.566956,371.837097 646.824829,372.382751 649.300232,377.171234
	C666.565247,410.569183 642.980469,453.597626 605.475525,457.377899
	C590.439209,458.893463 576.730530,455.932892 564.549744,446.776581
	C559.794617,443.202118 559.748840,441.917023 564.384766,438.075714
	C584.112976,421.729095 603.867065,405.413635 623.892212,388.870911
z"/>
</g>
</svg>
